<svg width="111" height="111" viewBox="0 0 111 111" fill="none" xmlns="http://www.w3.org/2000/svg">
<circle cx="55.5" cy="55.5" r="55.5" fill="#EACBBB" fill-opacity="0.2"/>
<path d="M53.7223 83.361H51.469C43.3367 83.361 39.2681 83.361 36.7418 80.7946C34.2155 78.2283 34.218 74.0971 34.218 65.8347V53.3159C34.218 45.0535 34.218 40.9223 36.7468 38.3584C39.2681 35.7871 43.3367 35.7871 51.469 35.7871H58.8626C66.9973 35.7871 71.7494 35.9273 74.2757 38.4911C76.8045 41.06 76.7795 45.051 76.7795 53.3134V56.2853M67.8811 33.3835V38.391M55.3623 33.3835V38.391M42.8435 33.3835V38.391M45.485 65.9323H55.5M45.485 53.4135H65.515" stroke="#280071" stroke-width="3" stroke-linecap="round" stroke-linejoin="round"/>
<path opacity="0.93" d="M79.9367 65.6294C77.6683 63.0881 76.3087 63.2408 74.799 63.694C73.7399 63.8442 70.1144 68.0756 68.6022 69.4276C66.1209 71.8763 63.6272 74.4001 63.4644 74.7306C62.9937 75.4942 62.5581 76.8462 62.3453 78.3585C61.9522 80.6269 61.3863 83.1783 62.1024 83.3986C62.8185 83.6189 64.824 83.1983 67.0899 82.8653C68.6022 82.5899 69.6587 82.2894 70.4149 81.8362C71.474 81.2003 73.4369 78.9644 76.8245 75.6369C78.9452 73.4011 80.9933 71.8563 81.5992 70.3465C82.2026 68.0781 81.2987 66.8688 79.9367 65.6294Z" stroke="#280071" stroke-width="3" stroke-linecap="round" stroke-linejoin="round"/>
</svg>
